<svg class="crumina-icon c-dark" version="1.1" width="320" height="95" viewBox="0 0 640 190" preserveAspectRatio="xMidYMid meet" xmlns="http://www.w3.org/2000/svg" xmlns:xlink="http://www.w3.org/1999/xlink">
							<g id="id661d7e3efaca5682dc50d402" mask="url(#canvasMask)">
								<path id="Step01" d="M 83.295,170 C 118.295,152 120.295,117.003 19.295,174 C -81.705,231 78.295,197 78.295,197 C 78.295,197 98.295,189 115.295,192 M 83.295,170 Z" style="fill: none; stroke: currentcolor; stroke-width: 3; stroke-opacity: 1; stroke-dashoffset: 0px; opacity: 1;" transform="matrix(1.0,0.0,0.0,1.0,22.1376,-98.96839999999999)" class="Step01" stroke-dasharray="304.4684753417969" stroke="currentColor" fill="none"></path>
								<path id="Step02" d="M 147.295,196 C 151.295,202 155.295,207 155.295,207 " style="fill: none; stroke: currentcolor; stroke-width: 3; stroke-opacity: 1; stroke-dashoffset: 0px; opacity: 1;" transform="matrix(1.0,0.0,0.0,1.0,-2.5818999999999903,-109.551)" class="Step02" stroke-dasharray="13.6049165725708" stroke="currentColor" fill="none"></path>
								<path id="Step03" d="M 195.295,144 C 189.295,166 182.295,186 177.295,197 M 195.295,144 Z" style="fill: none; stroke: currentcolor; stroke-width: 3; stroke-opacity: 1; stroke-dashoffset: 0px; opacity: 1;" transform="matrix(1.0,0.0,0.0,1.0,1.7130999999999972,-93.051)" class="Step03" stroke-dasharray="56.02133560180664" stroke="currentColor" fill="none"></path>
								<path id="Step04" d="M 148.295,141 C 158.295,97 366.315,126.739 178.295,190.999 C 99.295,217.999 196.305,173.086 221.294,166.001 C 243.607,159.676 258.289,162.001 273.289,165.001 " style="fill: none; stroke: currentcolor; stroke-width: 3; stroke-opacity: 1; stroke-dashoffset: 0px; opacity: 1;" transform="matrix(1.0,0.0,0.0,1.0,1.3153999999999826,-93.6399)" class="Step04" stroke-dasharray="385.35345458984375" stroke="currentColor" fill="none"></path>
								<path id="Step05" d="M 253.295,155 C 245.295,170 241.295,180 248.295,185 M 253.295,155 Z" style="fill: none; stroke: currentcolor; stroke-width: 3; stroke-opacity: 1; stroke-dashoffset: 0px; opacity: 1;" transform="matrix(1.0,0.0,0.0,1.0,1.7128999999999905,-93.051)" class="Step05" stroke-dasharray="32.970436096191406" stroke="currentColor" fill="none"></path>
								<path id="Step06" d="M 260.295,124 C 259.295,129 263.295,134 263.295,134 M 260.295,124 Z" style="fill: none; stroke: currentcolor; stroke-width: 3; stroke-opacity: 1; stroke-dashoffset: 0px; opacity: 1;" transform="matrix(1.0,0.0,0.0,1.0,1.7130999999999972,-93.051)" class="Step06" stroke-dasharray="10.735193252563477" stroke="currentColor" fill="none"></path>
								<path id="Step07" d="M 263.295,158 C 257.295,167 254.295,171 255.295,180 C 256.295,189 270.295,170 279.295,164 C 288.597,157.801 312.318,161.029 285.294,183.999 C 280.294,195.999 303.077,163.404 330.077,165.404 M 263.294,158.002 " style="fill: none; stroke: currentcolor; stroke-width: 3; stroke-opacity: 1; stroke-dashoffset: 0px; opacity: 1;" transform="matrix(1.0,0.0,0.0,1.0,1.931100000000015,-92.4558)" class="Step07" stroke-dasharray="154.23936462402344" stroke="currentColor" fill="none"></path>
								<path id="Step08" d="M 361.295,110 C 334.295,110 300.192,154.686 310.295,184.998 C 311.295,187.998 315.878,175.651 329.293,160 C 335.293,153 329.293,147 327.293,158 C 323.854,176.925 319.842,185.999 329.293,195.999 C 331.353,198.179 333.292,201.997 344.292,196.997 C 351.467,190.191 357.589,177.576 367.29,180.001 C 379.29,183.001 390.29,183.001 402.29,172.001 C 416.467,159.004 406.059,150.423 420.289,152.003 C 447.289,155.003 468.289,145.003 490.289,156.003 C 512.289,167.003 414.227,290.355 333.291,276.004 C 289.258,268.197 511.292,95.006 628.292,99.006 " style="fill: none; stroke: currentcolor; stroke-width: 3; stroke-opacity: 1; stroke-dashoffset: 0px; opacity: 1;" transform="matrix(1.0,0.0,0.0,1.0,1.713200000000029,-93.0515)" class="Step08" stroke-dasharray="957.25732421875" stroke="currentColor" fill="none"></path>
							</g>
						</svg>